<?xml version="1.0" standalone="no"?>
<!DOCTYPE svg PUBLIC "-//W3C//DTD SVG 20010904//EN"
 "http://www.w3.org/TR/2001/REC-SVG-20010904/DTD/svg10.dtd">
<svg version="1.0" xmlns="http://www.w3.org/2000/svg"
 width="512.000000pt" height="512.000000pt" viewBox="0 0 512.000000 512.000000"
 preserveAspectRatio="xMidYMid meet">

<g transform="translate(0.000000,512.000000) scale(0.100000,-0.100000)"
fill="#000000" stroke="none">
<path d="M2381 5109 c-450 -50 -935 -261 -1326 -576 -144 -115 -185 -163 -185
-211 0 -50 29 -88 80 -103 50 -15 76 -1 207 110 296 251 699 451 1060 526 617
129 1203 -50 1749 -532 50 -44 100 -86 112 -92 62 -33 148 14 154 84 5 67 -18
94 -207 250 -353 289 -720 464 -1115 530 -115 20 -413 27 -529 14z"/>
<path d="M2364 4599 c-44 -4 -123 -15 -175 -25 -76 -14 -99 -22 -121 -45 -56
-55 -25 -167 51 -184 16 -3 63 1 103 9 199 41 496 39 713 -5 456 -93 814 -363
1042 -787 106 -196 195 -459 243 -717 26 -144 35 -170 68 -195 65 -52 172 3
172 88 0 50 -42 264 -77 392 -68 253 -192 537 -308 709 -221 329 -507 549
-870 670 -257 86 -558 118 -841 90z"/>
<path d="M1604 4365 c-207 -104 -427 -297 -577 -505 -85 -120 -202 -352 -250
-497 -61 -185 -117 -467 -117 -593 0 -43 4 -56 29 -80 37 -37 73 -46 119 -28
53 20 68 55 87 206 58 467 255 872 544 1119 101 86 166 128 296 193 103 52
111 58 124 95 12 37 12 45 -4 78 -10 21 -30 44 -46 52 -49 26 -89 18 -205 -40z"/>
<path d="M2395 4174 c-320 -49 -579 -180 -804 -404 -236 -236 -403 -571 -456
-915 -74 -487 -115 -674 -180 -831 -39 -95 -88 -176 -128 -213 -32 -29 -51
-82 -42 -113 11 -36 56 -77 91 -84 48 -9 100 21 153 89 143 183 229 458 310
1002 16 110 42 240 56 289 115 395 352 691 680 852 270 131 545 147 850 48
164 -54 373 -169 531 -295 34 -27 73 -53 88 -58 38 -15 80 -3 113 31 22 23 28
39 28 73 0 53 -15 71 -142 166 -231 174 -487 294 -735 345 -72 14 -355 27
-413 18z"/>
<path d="M2466 3740 c-224 -28 -396 -111 -557 -270 -217 -214 -319 -458 -374
-900 -63 -498 -260 -1125 -409 -1298 -39 -46 -46 -60 -46 -97 0 -84 75 -134
152 -102 41 17 101 89 155 185 154 275 318 853 378 1332 30 231 59 339 136
494 101 203 262 343 469 407 106 33 299 34 413 1 210 -60 369 -183 447 -347
59 -123 78 -239 145 -865 62 -582 117 -872 224 -1180 81 -235 112 -282 186
-282 46 0 81 24 103 68 16 34 16 38 -5 92 -87 227 -108 291 -143 425 -66 256
-94 439 -160 1047 -47 436 -63 544 -97 660 -77 265 -272 468 -550 570 -148 53
-329 77 -467 60z"/>
<path d="M3752 3303 c-40 -20 -65 -65 -59 -107 2 -17 17 -65 32 -106 58 -160
85 -338 115 -766 32 -462 56 -636 106 -794 59 -187 111 -246 195 -221 79 24
100 99 54 190 -61 120 -94 324 -125 761 -35 498 -66 712 -131 896 -38 111 -52
132 -94 150 -43 18 -52 17 -93 -3z"/>
<path d="M2505 3299 c-94 -14 -197 -69 -271 -144 -50 -51 -75 -89 -118 -177
-83 -170 -120 -320 -181 -724 -14 -95 -36 -207 -49 -250 -93 -307 -283 -689
-509 -1023 -93 -137 -99 -171 -43 -227 25 -25 43 -34 68 -34 59 0 92 31 191
182 262 397 482 873 541 1173 9 44 27 159 41 255 55 378 138 610 248 694 138
105 333 52 416 -115 44 -87 55 -155 48 -294 -15 -312 -185 -882 -446 -1495
-97 -227 -273 -574 -355 -700 -48 -73 -76 -125 -76 -143 0 -40 26 -84 60 -102
70 -36 114 -11 195 113 222 340 534 1060 698 1612 172 575 193 880 79 1107
-106 209 -317 324 -537 292z"/>
<path d="M2502 2837 c-43 -25 -54 -53 -63 -175 -62 -798 -334 -1516 -781
-2060 -60 -74 -68 -88 -68 -125 0 -49 19 -81 62 -103 64 -33 113 -1 240 161
266 338 480 770 613 1235 86 303 129 543 155 852 9 106 8 133 -4 162 -24 57
-99 83 -154 53z"/>
<path d="M3119 1538 c-28 -26 -23 -15 -125 -293 -151 -416 -298 -724 -475
-1000 -55 -87 -63 -105 -60 -152 2 -35 48 -82 88 -89 63 -12 93 12 175 143
144 227 273 484 388 771 l53 132 34 -112 c76 -251 199 -515 253 -543 76 -40
163 10 163 93 0 15 -27 84 -61 152 -33 69 -79 179 -102 245 -39 114 -114 404
-141 545 -17 88 -56 130 -122 130 -32 0 -51 -6 -68 -22z"/>
</g>
</svg>
